# xmcd
#
# Track frame offsets: 
#        150
#        10948
#        20696
#        31621
#        43434
#        56102
#        67991
#        79873
#        92213
#        102941
#        113815
#        123821
#        135590
#        148026
#        159028
#        171711
#        185875
#        202640
#        214048
#        225464
#        236681
#        248049
#        259679
#        271044
#        280701
#
# Disc length: 3913 seconds
#
# Revision: 0
# Processed by: cddbd v1.5.2PL0 Copyright (c) Steve Scherf et al.
# Submitted via: ExactAudioCopyFreeDBPlugin 1.0
#
DISCID=580f4719
DTITLE=Buck Owens - Buck 'Em! Volume 2: The Music Of Buck Owens (1967-
DTITLE=1975) [CD2]
DYEAR=2015
DGENRE=Country
TTITLE0=Arms Full Of Empty
TTITLE1=Ain't It Amazing, Gracie
TTITLE2=You Ain't Gonna Have Ol' Buck To Kick Around No More
TTITLE3=I Love You So Much It Hurts
TTITLE4=Something's Wrong
TTITLE5=In The Palm Of Your Hand
TTITLE6=Streets Of Bakersfield
TTITLE7=The Good Old Days (Are Here Again)
TTITLE8=I Won't Be Needing You
TTITLE9=It Never Will Be Over For Me
TTITLE10=Big Game Hunter
TTITLE11=(It's A) Monster's Holiday
TTITLE12=Stony Mountain West Virginia
TTITLE13=Holdin' On
TTITLE14=On The Cover Of The Music City News (Live In Japan)
TTITLE15=Made In Japan (Live In Japan)
TTITLE16=Somewhere Between You And Me (Live In New Zealand)
TTITLE17=Rollin' In My Sweet Baby's Arms (Live In Australia)
TTITLE18=Great Expectations
TTITLE19=41st Street Lonely Hearts' Club
TTITLE20=Weekend Daddy
TTITLE21=He Ain't Been Out Bowling With The Boys (Outtake)
TTITLE22=A Different Kind Of Sad (Outtake)
TTITLE23=The Battle Of New Orleans
TTITLE24=Country Singer's Prayer
EXTD=
EXTT0=
EXTT1=
EXTT2=
EXTT3=
EXTT4=
EXTT5=
EXTT6=
EXTT7=
EXTT8=
EXTT9=
EXTT10=
EXTT11=
EXTT12=
EXTT13=
EXTT14=
EXTT15=
EXTT16=
EXTT17=
EXTT18=
EXTT19=
EXTT20=
EXTT21=
EXTT22=
EXTT23=
EXTT24=
PLAYORDER=
